<?xml version="1.0" standalone="no"?>
<!DOCTYPE svg PUBLIC "-//W3C//DTD SVG 20010904//EN"
 "http://www.w3.org/TR/2001/REC-SVG-20010904/DTD/svg10.dtd">
<svg version="1.0" xmlns="http://www.w3.org/2000/svg"
 width="800.000000pt" height="800.000000pt" viewBox="0 0 800.000000 800.000000"
 preserveAspectRatio="xMidYMid meet">

<g transform="translate(0.000000,800.000000) scale(0.100000,-0.100000)"
fill="#000000" stroke="none">
<path d="M1660 6767 c-92 -26 -94 -28 -447 -456 -15 -19 -56 -68 -90 -110 -76
-91 -98 -148 -90 -237 9 -114 13 -119 403 -446 473 -396 903 -757 930 -778 91
-73 699 -585 702 -591 2 -3 -34 -37 -80 -75 -46 -38 -94 -78 -108 -91 -14 -12
-101 -86 -195 -163 -93 -78 -181 -152 -195 -164 -14 -11 -171 -143 -350 -293
-1060 -886 -1042 -870 -1071 -929 -29 -60 -31 -150 -6 -217 13 -33 91 -133
256 -330 271 -322 291 -339 403 -345 109 -7 132 6 402 232 133 111 313 262
401 335 233 194 237 198 391 327 77 66 215 180 305 255 90 74 305 253 477 397
171 144 317 262 322 262 5 0 78 -58 162 -128 84 -70 428 -357 763 -637 336
-280 630 -526 655 -547 437 -366 532 -444 570 -461 68 -32 160 -29 228 6 45
24 83 65 271 291 121 145 233 283 250 306 61 85 63 211 3 298 -15 22 -146 140
-292 263 -146 123 -305 257 -355 299 -49 42 -250 211 -445 375 -441 371 -474
399 -480 405 -3 3 -30 25 -60 50 -30 25 -66 55 -80 66 -14 12 -74 63 -133 114
-59 50 -107 96 -105 100 3 8 143 126 743 629 174 145 409 342 580 486 66 55
219 183 340 284 270 225 300 254 327 311 30 60 30 167 2 225 -17 35 -225 298
-428 542 -82 99 -136 128 -236 128 -55 0 -85 -6 -112 -20 -31 -17 -194 -148
-423 -341 -112 -93 -1688 -1409 -1717 -1432 l-28 -24 -213 179 c-410 344
-1211 1014 -1427 1195 -75 62 -218 182 -318 266 -101 85 -203 162 -227 173
-58 26 -120 31 -175 16z"/>
</g>
</svg>
