<?xml version="1.0" standalone="no"?>
<!DOCTYPE svg PUBLIC "-//W3C//DTD SVG 20010904//EN"
 "http://www.w3.org/TR/2001/REC-SVG-20010904/DTD/svg10.dtd">
<svg version="1.0" xmlns="http://www.w3.org/2000/svg"
 width="600.000000pt" height="600.000000pt" viewBox="0 0 600.000000 600.000000"
 preserveAspectRatio="xMidYMid meet">

<g transform="translate(0.000000,600.000000) scale(0.100000,-0.100000)"
fill="#000000" stroke="none">
<path d="M5270 5863 c-157 -16 -363 -77 -497 -148 -352 -186 -863 -758 -1480
-1660 -429 -625 -951 -1491 -1203 -1996 l-81 -161 -92 4 c-81 3 -102 8 -167
39 -41 20 -102 57 -135 82 -133 100 -308 306 -439 517 -33 52 -61 96 -62 98
-1 2 -234 -151 -518 -341 l-516 -343 142 -165 c619 -719 1055 -1295 1208
-1600 l30 -59 493 0 494 0 53 148 c256 708 777 1756 1325 2662 421 695 838
1286 1257 1779 164 193 524 556 677 682 125 103 161 155 161 235 0 107 -129
195 -330 224 -62 9 -245 11 -320 3z"/>
</g>
</svg>
